<svg width="72" height="72" viewBox="0 0 72 72" fill="none" xmlns="http://www.w3.org/2000/svg">
<path d="M36 72C55.8823 72 72 55.8823 72 36C72 16.1177 55.8823 0 36 0C16.1177 0 0 16.1177 0 36C0 55.8823 16.1177 72 36 72Z" fill="url(#paint0_linear)"/>
<path d="M60.9586 23.8476C60.8326 23.7824 60.6899 23.7495 60.5454 23.7523C60.4009 23.7551 60.2599 23.7935 60.137 23.8636L50.8125 29.1595V25.627C50.8117 24.9311 50.5118 24.2638 49.9787 23.7717C49.4455 23.2796 48.7227 23.0028 47.9688 23.002H40.9752C41.5529 22.4806 42.0036 21.8515 42.2972 21.1567C42.5908 20.4618 42.7205 19.7172 42.6778 18.9724C42.6352 18.2277 42.421 17.4998 42.0495 16.8375C41.6781 16.1751 41.158 15.5934 40.5239 15.1312C39.8898 14.669 39.1563 14.3369 38.3721 14.157C37.588 13.9771 36.7714 13.9535 35.9766 14.0879C35.1818 14.2222 34.4272 14.5114 33.7631 14.9361C33.0989 15.3609 32.5405 15.9114 32.125 16.5511C31.7097 15.9111 31.1513 15.3602 30.4871 14.9351C29.8229 14.5101 29.0681 14.2206 28.2731 14.0861C27.4782 13.9515 26.6613 13.975 25.8769 14.1549C25.0925 14.3347 24.3587 14.6669 23.7244 15.1293C23.0901 15.5916 22.5699 16.1735 22.1984 16.8361C21.827 17.4987 21.6129 18.2268 21.5703 18.9718C21.5278 19.7168 21.6578 20.4616 21.9517 21.1566C22.2456 21.8515 22.6967 22.4807 23.2748 23.002H18.7188C17.9648 23.0028 17.242 23.2796 16.7088 23.7717C16.1757 24.2638 15.8758 24.9311 15.875 25.627V26.002H13.8438C13.0898 26.0028 12.367 26.2796 11.8338 26.7717C11.3007 27.2638 11.0008 27.9311 11 28.627V32.377C11.0008 33.073 11.3007 33.7402 11.8338 34.2323C12.367 34.7244 13.0898 35.0013 13.8438 35.002H15.875V45.877C15.8758 46.573 16.1757 47.2402 16.7088 47.7323C17.242 48.2244 17.9648 48.5013 18.7188 48.502H27.25V50.002C27.25 50.2009 27.3356 50.3917 27.488 50.5324C27.6403 50.673 27.847 50.752 28.0625 50.752H29.6875V56.752C29.6875 56.9509 29.7731 57.1417 29.9255 57.2824C30.0778 57.423 30.2845 57.502 30.5 57.502H35.375C35.5905 57.502 35.7972 57.423 35.9495 57.2824C36.1019 57.1417 36.1875 56.9509 36.1875 56.752V50.752H37.8125C38.028 50.752 38.2347 50.673 38.387 50.5324C38.5394 50.3917 38.625 50.2009 38.625 50.002V48.502H47.9688C48.7227 48.5013 49.4455 48.2244 49.9787 47.7323C50.5118 47.2402 50.8117 46.573 50.8125 45.877V42.3445L60.137 47.6405C60.26 47.7103 60.4011 47.7486 60.5455 47.7514C60.69 47.7542 60.8326 47.7214 60.9588 47.6563C61.0849 47.5913 61.19 47.4963 61.2631 47.3813C61.3363 47.2663 61.3749 47.1354 61.375 47.002V24.502C61.375 24.3686 61.3364 24.2376 61.2632 24.1226C61.19 24.0075 61.0848 23.9126 60.9586 23.8476V23.8476ZM15.875 33.502H13.8438C13.5206 33.5018 13.2108 33.3832 12.9823 33.1722C12.7538 32.9613 12.6253 32.6753 12.625 32.377V28.627C12.6253 28.3287 12.7538 28.0427 12.9823 27.8318C13.2108 27.6209 13.5206 27.5023 13.8438 27.502H15.875V33.502ZM37 15.502C37.8035 15.502 38.5889 15.722 39.257 16.134C39.9251 16.5461 40.4458 17.1317 40.7533 17.817C41.0607 18.5022 41.1412 19.2562 40.9844 19.9836C40.8277 20.711 40.4408 21.3792 39.8726 21.9037C39.3045 22.4281 38.5806 22.7853 37.7926 22.93C37.0045 23.0747 36.1877 23.0004 35.4453 22.7166C34.703 22.4327 34.0685 21.9521 33.6222 21.3354C33.1758 20.7187 32.9375 19.9937 32.9375 19.252C32.9386 18.2578 33.3669 17.3045 34.1286 16.6015C34.8902 15.8984 35.9229 15.503 37 15.502V15.502ZM33.0248 23.002H31.2252C31.572 22.6889 31.8743 22.3364 32.125 21.953C32.3757 22.3364 32.678 22.6889 33.0248 23.002V23.002ZM23.1875 19.252C23.1875 18.5103 23.4258 17.7853 23.8722 17.1686C24.3185 16.5519 24.953 16.0713 25.6953 15.7875C26.4377 15.5036 27.2545 15.4294 28.0426 15.5741C28.8306 15.7188 29.5545 16.0759 30.1226 16.6004C30.6908 17.1248 31.0777 17.793 31.2344 18.5204C31.3912 19.2479 31.3107 20.0019 31.0033 20.6871C30.6958 21.3723 30.1751 21.958 29.507 22.37C28.8389 22.7821 28.0535 23.002 27.25 23.002C26.1729 23.001 25.1402 22.6056 24.3786 21.9026C23.6169 21.1995 23.1886 20.2463 23.1875 19.252ZM34.5625 56.002H31.3125V50.752H34.5625V56.002ZM37 49.252H28.875V48.502H37V49.252ZM49.1875 45.877C49.1872 46.1753 49.0587 46.4613 48.8302 46.6722C48.6017 46.8832 48.2919 47.0018 47.9688 47.002H18.7188C18.3956 47.0018 18.0858 46.8832 17.8573 46.6722C17.6288 46.4613 17.5003 46.1753 17.5 45.877V39.502H49.1875V45.877ZM49.1875 38.002H17.5V25.627C17.5003 25.3287 17.6288 25.0427 17.8573 24.8318C18.0858 24.6209 18.3956 24.5023 18.7188 24.502H47.9688C48.2919 24.5023 48.6017 24.6209 48.8302 24.8318C49.0587 25.0427 49.1872 25.3287 49.1875 25.627V38.002ZM59.75 45.6595L50.8125 40.583V30.9211L59.75 25.8445V45.6595Z" fill="white"/>
<path d="M27.25 17.002C26.7679 17.002 26.2966 17.134 25.8958 17.3812C25.495 17.6285 25.1825 17.9799 24.998 18.391C24.8136 18.8021 24.7653 19.2545 24.8593 19.691C24.9534 20.1274 25.1855 20.5283 25.5264 20.843C25.8673 21.1577 26.3016 21.372 26.7745 21.4588C27.2473 21.5456 27.7374 21.5011 28.1828 21.3308C28.6282 21.1605 29.0089 20.8721 29.2767 20.5021C29.5445 20.132 29.6875 19.697 29.6875 19.252C29.6868 18.6555 29.4297 18.0836 28.9728 17.6618C28.5158 17.24 27.8962 17.0027 27.25 17.002V17.002ZM27.25 20.002C27.0893 20.002 26.9322 19.958 26.7986 19.8756C26.665 19.7932 26.5608 19.6761 26.4993 19.539C26.4379 19.402 26.4218 19.2512 26.4531 19.1057C26.4845 18.9602 26.5618 18.8266 26.6755 18.7217C26.7891 18.6168 26.9339 18.5454 27.0915 18.5164C27.2491 18.4875 27.4125 18.5024 27.5609 18.5591C27.7094 18.6159 27.8363 18.712 27.9256 18.8354C28.0148 18.9587 28.0625 19.1037 28.0625 19.252C28.0623 19.4509 27.9766 19.6415 27.8243 19.7821C27.6719 19.9227 27.4654 20.0018 27.25 20.002Z" fill="white"/>
<path d="M37 21.502C37.4821 21.502 37.9534 21.3701 38.3542 21.1228C38.7551 20.8756 39.0675 20.5242 39.252 20.1131C39.4365 19.7019 39.4847 19.2495 39.3907 18.8131C39.2966 18.3766 39.0645 17.9757 38.7236 17.661C38.3827 17.3464 37.9484 17.1321 37.4755 17.0453C37.0027 16.9584 36.5126 17.003 36.0672 17.1733C35.6218 17.3436 35.2411 17.632 34.9733 18.002C34.7055 18.372 34.5625 18.807 34.5625 19.252C34.5632 19.8486 34.8203 20.4205 35.2772 20.8423C35.7342 21.2641 36.3538 21.5014 37 21.502ZM37 18.502C37.1607 18.502 37.3178 18.546 37.4514 18.6284C37.585 18.7108 37.6892 18.828 37.7507 18.965C37.8122 19.1021 37.8282 19.2529 37.7969 19.3983C37.7655 19.5438 37.6882 19.6775 37.5745 19.7824C37.4609 19.8872 37.3161 19.9587 37.1585 19.9876C37.0009 20.0166 36.8375 20.0017 36.6891 19.9449C36.5406 19.8882 36.4137 19.792 36.3244 19.6687C36.2352 19.5454 36.1875 19.4004 36.1875 19.252C36.1877 19.0532 36.2734 18.8625 36.4257 18.7219C36.5781 18.5813 36.7846 18.5022 37 18.502V18.502Z" fill="white"/>
<path d="M34.5625 41.002H19.9375C19.722 41.002 19.5153 41.081 19.363 41.2217C19.2106 41.3623 19.125 41.5531 19.125 41.752V44.752C19.125 44.9509 19.2106 45.1417 19.363 45.2824C19.5153 45.423 19.722 45.502 19.9375 45.502H34.5625C34.778 45.502 34.9847 45.423 35.137 45.2824C35.2894 45.1417 35.375 44.9509 35.375 44.752V41.752C35.375 41.5531 35.2894 41.3623 35.137 41.2217C34.9847 41.081 34.778 41.002 34.5625 41.002ZM33.75 44.002H20.75V42.502H33.75V44.002Z" fill="white"/>
<path d="M38.625 41.002C38.1429 41.002 37.6716 41.134 37.2708 41.3812C36.87 41.6285 36.5575 41.9799 36.373 42.391C36.1886 42.8021 36.1403 43.2545 36.2343 43.691C36.3284 44.1274 36.5605 44.5283 36.9014 44.843C37.2423 45.1577 37.6766 45.372 38.1495 45.4588C38.6223 45.5456 39.1124 45.5011 39.5578 45.3308C40.0032 45.1605 40.3839 44.8721 40.6517 44.5021C40.9195 44.132 41.0625 43.697 41.0625 43.252C41.0618 42.6555 40.8047 42.0836 40.3477 41.6618C39.8908 41.24 39.2712 41.0027 38.625 41.002V41.002ZM38.625 44.002C38.4643 44.002 38.3072 43.958 38.1736 43.8756C38.04 43.7932 37.9358 43.6761 37.8744 43.539C37.8129 43.402 37.7968 43.2512 37.8281 43.1057C37.8595 42.9602 37.9368 42.8266 38.0505 42.7217C38.1641 42.6168 38.3089 42.5454 38.4665 42.5164C38.6241 42.4875 38.7875 42.5024 38.9359 42.5591C39.0844 42.6159 39.2113 42.712 39.3006 42.8353C39.3899 42.9587 39.4375 43.1037 39.4375 43.252C39.4373 43.4509 39.3516 43.6415 39.1993 43.7821C39.0469 43.9227 38.8404 44.0018 38.625 44.002Z" fill="white"/>
<path d="M44.3125 41.002C43.8304 41.002 43.3591 41.134 42.9583 41.3812C42.5575 41.6285 42.245 41.9799 42.0605 42.391C41.8761 42.8021 41.8278 43.2545 41.9218 43.691C42.0159 44.1274 42.248 44.5283 42.5889 44.843C42.9298 45.1577 43.3641 45.372 43.837 45.4588C44.3098 45.5456 44.7999 45.5011 45.2453 45.3308C45.6907 45.1605 46.0714 44.8721 46.3392 44.5021C46.607 44.132 46.75 43.697 46.75 43.252C46.7493 42.6555 46.4922 42.0836 46.0352 41.6618C45.5783 41.24 44.9587 41.0027 44.3125 41.002ZM44.3125 44.002C44.1518 44.002 43.9947 43.958 43.8611 43.8756C43.7275 43.7932 43.6233 43.6761 43.5619 43.539C43.5004 43.402 43.4843 43.2512 43.5156 43.1057C43.547 42.9602 43.6243 42.8266 43.738 42.7217C43.8516 42.6168 43.9964 42.5454 44.154 42.5164C44.3116 42.4875 44.475 42.5024 44.6234 42.5591C44.7719 42.6159 44.8988 42.712 44.9881 42.8353C45.0774 42.9587 45.125 43.1037 45.125 43.252C45.1248 43.4509 45.0391 43.6415 44.8868 43.7821C44.7344 43.9227 44.5279 44.0018 44.3125 44.002Z" fill="white"/>
<defs>
<linearGradient id="paint0_linear" x1="0" y1="0" x2="71.6976" y2="71.6976" gradientUnits="userSpaceOnUse">
<stop stop-color="#33D35E"/>
<stop offset="1" stop-color="#2AB6D9"/>
</linearGradient>
</defs>
</svg>
